<svg width="14" height="12" viewBox="0 0 14 12" fill="none" xmlns="http://www.w3.org/2000/svg">
<path d="M5 7.86667L11.5333 1.33334C11.7778 1.0889 12.0889 0.966675 12.4667 0.966675C12.8444 0.966675 13.1556 1.0889 13.4 1.33334C13.6444 1.57779 13.7667 1.8889 13.7667 2.26667C13.7667 2.64445 13.6444 2.95556 13.4 3.20001L5.93334 10.6667C5.66667 10.9333 5.35556 11.0667 5 11.0667C4.64445 11.0667 4.33334 10.9333 4.06667 10.6667L0.600004 7.20001C0.355559 6.95556 0.233337 6.64445 0.233337 6.26667C0.233337 5.8889 0.355559 5.57779 0.600004 5.33334C0.844448 5.0889 1.15556 4.96667 1.53334 4.96667C1.91112 4.96667 2.22223 5.0889 2.46667 5.33334L5 7.86667Z" fill="#22C55E"/>
</svg>
